#N canvas 491 308 566 467 10;
#X text 152 90 wave-in;
#X text 81 440 wave-out;
#X obj 26 392 -~;
#X obj 68 143 -~;
#X obj 24 108 inlet~;
#X text 21 69 mouth-pressure;
#X text 20 84 (with noise);
#X obj 185 264 min~ 1;
#X obj 186 237 -~;
#X obj 252 181 -~;
#X obj 68 340 *~;
#X obj 185 185 sig~ 1;
#X obj 253 85 sig~ 0.4;
#X text 236 232 table;
#X text 170 416 (c) GPL \, acre winfried ritsch;
#N canvas 836 238 450 300 m 0;
#X obj 14 12 inlet~ h_c;
#X obj 7 273 outlet~ m;
#X obj 34 51 +~ 1;
#X obj 20 115 sig~ 1;
#X obj 20 144 /~;
#X text 111 77 div by 0 protection;
#X obj 34 74 max~ 0.0001;
#X connect 0 0 2 0;
#X connect 2 0 6 0;
#X connect 3 0 4 0;
#X connect 4 0 1 0;
#X connect 6 0 4 1;
#X restore 297 182 pd m;
#X obj 204 214 *~;
#X text 193 434 modified by Manuel Planton 2019;
#X text 103 150 hD+;
#X obj 253 61 r \$1/h_c;
#X text 17 29 calculates pressure dependent reflection coeffitien at
the mouthpiece;
#X text 19 7 wg/reed/exponential~ <id>;
#X obj 478 75 r \$1/k;
#X text 191 284 rho_hat;
#X obj 26 419 outlet~ p_b_minus;
#X obj 186 318 pow~ 1;
#X obj 147 110 inlet~ p_b_plus;
#X connect 2 0 24 0;
#X connect 3 0 9 1;
#X connect 3 0 10 0;
#X connect 4 0 2 0;
#X connect 4 0 3 0;
#X connect 7 0 25 0;
#X connect 8 0 7 0;
#X connect 9 0 16 0;
#X connect 10 0 2 1;
#X connect 11 0 8 0;
#X connect 12 0 9 0;
#X connect 12 0 15 0;
#X connect 15 0 16 1;
#X connect 16 0 8 1;
#X connect 19 0 12 0;
#X connect 22 0 25 1;
#X connect 25 0 10 1;
#X connect 26 0 3 1;
