#N canvas 493 291 566 406 10;
#X obj 26 349 outlet~;
#X text 152 90 wave-in;
#X text 89 350 wave-out;
#X obj 147 110 inlet~;
#X obj 26 322 -~;
#X obj 68 143 -~;
#X obj 24 108 inlet~;
#X text 21 69 mouth-pressure;
#X text 20 84 (with noise);
#X obj 185 264 min~ 1;
#X obj 186 237 -~;
#X obj 252 181 -~;
#X obj 68 300 *~;
#X obj 185 185 sig~ 1;
#X obj 253 85 sig~ 0.4;
#X text 241 252 table;
#X text 170 346 (c) GPL \, acre winfried ritsch;
#X text 19 7 wg/reed/simple~ <id>;
#N canvas 836 238 450 300 m 0;
#X obj 14 12 inlet~ h_c;
#X obj 7 273 outlet~ m;
#X obj 34 51 +~ 1;
#X obj 20 115 sig~ 1;
#X obj 20 144 /~;
#X text 111 77 div by 0 protection;
#X obj 34 74 max~ 0.0001;
#X connect 0 0 2 0;
#X connect 2 0 6 0;
#X connect 3 0 4 0;
#X connect 4 0 1 0;
#X connect 6 0 4 1;
#X restore 297 182 pd m;
#X obj 204 214 *~;
#X text 193 364 modified by Manuel Planton 2019;
#X text 103 150 hD+;
#X text 17 29 calculates pressure dependent reflection factor at the
mouthpiece;
#X obj 253 61 r \$1/h_c;
#X connect 3 0 5 1;
#X connect 4 0 0 0;
#X connect 5 0 11 1;
#X connect 5 0 12 0;
#X connect 6 0 4 0;
#X connect 6 0 5 0;
#X connect 9 0 12 1;
#X connect 10 0 9 0;
#X connect 11 0 19 0;
#X connect 12 0 4 1;
#X connect 13 0 10 0;
#X connect 14 0 11 0;
#X connect 14 0 18 0;
#X connect 18 0 19 1;
#X connect 19 0 10 1;
#X connect 23 0 14 0;
