#N canvas 743 89 589 339 10;
#X declare -lib zexy;
#X declare -path iemlib -lib iemlib -lib iemlib1 -lib iemlib2;
#X declare -path lib/acre;
#X declare -path lib;
#N canvas 841 240 624 201 settings 0;
#X obj 235 93 declare -lib zexy;
#X text 81 11 path and libs needed for this project;
#X obj 235 71 declare -path iemlib -lib iemlib -lib iemlib1 -lib iemlib2
;
#X obj 37 43 declare -path lib/acre;
#X obj 37 63 declare -path lib;
#X restore 22 26 pd settings;
#N canvas 429 256 1265 554 GUI 1;
#X obj 209 118 mxr/mo/ctl;
#X obj 9 118 mxr/master/stereo_ctl;
#X text 8 341 (c) GPL \, acre winfried ritsch;
#X obj 318 90 hradio 15 1 0 4 /song /song Song 0 -8 0 10 #fcfcfc #000000
#000000 0;
#X obj 9 68 wg/init/ctl;
#X obj 430 228 wg/clarinet/ctl /clarinet/A;
#X obj 430 178 wg/adsr/ctl /clarinet/A/adsr A;
#X text 31 356 Modified by Manuel Planton 2019;
#X obj 530 228 wg/clarinet/ctl /clarinet/B;
#X obj 530 178 wg/adsr/ctl /clarinet/B/adsr B;
#X obj 430 93 tgl 15 0 /clarinet/A/on /clarinet/A/on on 17 7 0 10 #fc0400
#000000 #000000 0 1;
#X obj 530 93 tgl 15 0 /clarinet/B/on /clarinet/B/on on 17 7 0 10 #fc0400
#000000 #000000 0 1;
#X obj 309 118 acre/ds/ctl /preset;
#N canvas 417 286 450 300 preset_notes 0;
#X text 12 6 0...long release time notes;
#X text 12 26 1...short release time notes;
#X restore 310 321 pd preset_notes;
#X obj 640 93 tgl 15 0 /clarinet/C/on /clarinet/C/on on 17 7 0 10 #fc0400
#000000 #000000 0 1;
#X obj 630 178 wg/adsr/ctl /clarinet/C/adsr C;
#X text 630 428 h_c: 0.1 - 0.45 with pressure: 0;
#X text 630 448 h_c: 1.15 - 2.4 with pressure: 100;
#X text 630 464 h_c before: 0.4;
#X obj 740 93 tgl 15 0 /clarinet/D/on /clarinet/D/on on 17 7 0 10 #fc0400
#000000 #000000 0 1;
#X obj 730 178 wg/adsr/ctl /clarinet/D/adsr D;
#X obj 530 118 abs/adsr~_ctl /clarinet/B/midi/adsr midi/B;
#X obj 430 118 abs/adsr~_ctl /clarinet/A/midi/adsr midi/A;
#X obj 630 118 abs/adsr~_ctl /clarinet/C/midi/adsr midi/C;
#X obj 730 118 abs/adsr~_ctl /clarinet/D/midi/adsr midi/D;
#X obj 630 228 abs/clarinet/ctl_C /clarinet/C;
#X obj 730 228 abs/clarinet/ctl_D /clarinet/D;
#X text 531 10 lookup instrument changes in README.md;
#X text 426 482 The reflection filter phase is currently not compensated
in terms of played frequency -> detuned. TODO: Fixed fc for instrument
and compensate (linearly or with inverse phase response if necessary)
;
#X obj 851 118 abs/adsr~_ctl /sax/A/midi/adsr sax/midi/A;
#X obj 854 88 tgl 15 0 /sax/A/on /sax/A/on on 17 7 0 10 #fc0400 #000000
#000000 0 1;
#X text 847 8 saxophones;
#X obj 851 178 wg/adsr/ctl /sax/A/adsr saxA;
#X obj 851 228 abs/sax/ctl_A /sax/A;
#X obj 852 453 s /sax/A/R_o/beta;
#X floatatom 852 430 5 0 0 0 - - - 0;
#X text 846 100 warning: unstable;
#X obj 951 228 abs/sax/ctl_B /sax/B;
#X obj 951 118 abs/adsr~_ctl /sax/B/midi/adsr sax/midi/B;
#X obj 951 178 wg/adsr/ctl /sax/B/adsr saxB;
#X obj 954 88 tgl 15 0 /sax/B/on /sax/B/on on 17 7 0 10 #fc0400 #000000
#000000 0 1;
#X obj 961 466 clip 0 0.9999;
#X obj 961 489 s /sax/B/cyclone/beta;
#X text 957 510 difficult parameter set;
#X obj 1051 118 abs/adsr~_ctl /sax/C/midi/adsr sax/midi/C;
#X obj 1054 88 tgl 15 0 /sax/C/on /sax/C/on on 17 7 0 10 #fc0400 #000000
#000000 0 1;
#X obj 1051 178 wg/adsr/ctl /sax/C/adsr saxC;
#X obj 1051 228 abs/sax/ctl_C /sax/C;
#X floatatom 963 441 5 0 0 2 beta - - 0;
#X text 997 443 0.06;
#X text 429 68 Clarinet A;
#X text 529 68 Clarinet B;
#X text 639 68 Clarinet C;
#X text 739 68 Clarinet D;
#X text 849 68 Saxophone A;
#X text 959 68 Saxophone B;
#X text 1059 68 Saxophone C;
#X text 43 6 1 Select a song to play.;
#X text 43 21 2 Turn on a physical model.;
#X text 43 37 3 Play with the parameters to produce sound.;
#X connect 35 0 34 0;
#X connect 41 0 42 0;
#X connect 48 0 41 0;
#X restore 115 52 pd GUI;
#N canvas 595 413 450 300 init 0;
#X obj 38 70 loadbang;
#X msg 47 91 \; /mxr/dsp 1 \; /mxr/fadetime 30 \;;
#X text 57 34 for some presets to store;
#X obj 199 67 del 1000;
#X msg 199 89 \; pd-GUI vis 1;
#X text 268 65 some hint for test;
#X text 44 144 since ds is in libs/acre/ds \, relative is ../wg;
#X msg 38 170 \; /preset/program/load symbol ../../../preset.txt \;
/preset/program/nr 0 \; /preset/program/recall bang;
#X connect 0 0 1 0;
#X connect 0 0 7 0;
#X connect 0 0 3 0;
#X connect 3 0 4 0;
#X restore 115 26 pd init;
#N canvas 522 372 442 162 MIXER 0;
#X obj 33 38 mxr/mo/master~;
#X obj 76 82 mxr/master/stereo~;
#X obj 74 118 dac~ 1 2;
#X text 61 11 simple stereo master with monitoring on channel 1;
#X connect 0 0 2 0;
#X connect 1 0 2 0;
#X connect 1 1 2 1;
#X restore 22 52 pd MIXER;
#X text 22 276 (c) GPL \, acre winfried ritsch;
#N canvas 506 689 312 123 storage 0;
#X text 11 59 mixer settings for default preset;
#X text 34 6 store and load settings;
#X obj 13 34 ds/storage_logic /preset;
#X obj 12 76 mxr/master/stereo_ds /preset;
#X restore 21 82 pd storage;
#N canvas 350 205 576 430 songs 0;
#X msg 100 209 rewind;
#X msg 109 235 stop;
#X msg 13 203 bang;
#X obj 28 56 route 0 1 2 3;
#X text 145 11 somebody out there: please dynamify the midi-files and
send them to me;
#X obj 64 318 qlist;
#X obj 63 269 s qlist/player;
#X obj 66 295 r qlist/player;
#X obj 8 32 t b f;
#X floatatom 75 32 5 0 0 0 - - - 0;
#X obj 8 10 r /qlistplayer/song;
#X text 61 361 notes are send to notedur with <note><vel><dur> list
within qlist;
#X obj 97 341 s /qlistplayer/end;
#X msg 29 80 read wg/data/songs/the_blackthron_cane_with_a_thong.qlist
;
#X msg 53 107 read wg/data/songs/peasant_air.qlist;
#X msg 80 136 read wg/data/songs/munster_jig.qlist;
#X msg 103 160 read wg/data/songs/county_of_waterford_air.qlist;
#X connect 0 0 6 0;
#X connect 1 0 6 0;
#X connect 2 0 6 0;
#X connect 3 0 13 0;
#X connect 3 1 14 0;
#X connect 3 2 15 0;
#X connect 3 3 16 0;
#X connect 5 1 12 0;
#X connect 7 0 5 0;
#X connect 8 0 2 0;
#X connect 8 1 3 0;
#X connect 8 1 9 0;
#X connect 10 0 8 0;
#X connect 13 0 6 0;
#X connect 14 0 6 0;
#X connect 15 0 6 0;
#X connect 16 0 6 0;
#X restore 21 134 pd songs;
#X text 46 294 Modified by Manuel Planton 2019;
#X text 140 4 physical modeling saxophone development;
#X text 211 44 --- clarinets ---;
#X text 211 164 --- saxophones ---;
#N canvas 49 97 702 466 clarinet_A_original 0;
#X obj 11 401 throw~ /out/1~;
#X obj 11 370 wg/clarinet/dsp~ /clarinet/A;
#X obj 35 330 wg/clarinet/slap_and_breath /clarinet/A/blow;
#X obj 120 401 throw~ /out/2~;
#X obj 247 286 s /clarinet/A/blow/slap;
#X text 17 165 ADSR for playing notes (play with bang);
#X text 40 238 additional slap for note attack (not needed);
#X text 35 310 for testing a simple preset here;
#X obj 247 260 spigot;
#X obj 306 260 tgl 15 0 empty empty empty 17 7 0 10 #fcfcfc #000000
#000000 0 1;
#X obj 12 189 wg/adsr/drive /clarinet/A/adsr 94 1000 30 30 90 200;
#X text 390 166 --- storage ---;
#X text 10 424 (c) GPL algorythmics \, acre \, winfried ritsch;
#X obj 12 215 wg/adsr/vgen~ 94 1000 30 30 90 200;
#X obj 451 293 loadbang;
#X msg 451 315 \; /clarinet/A/adsr/vel 95;
#X text 450 347 vel is not stored \, so init;
#X obj 584 41 switch~;
#X obj 584 18 r /clarinet/A/on;
#X obj 4 11 r /midi/vel;
#X obj 4 33 t f f;
#X obj 31 95 dbtorms;
#X obj 31 53 / 127;
#X obj 31 74 * 94;
#X obj 4 123 abs/adsr~ /clarinet/A/midi/adsr 1 10 200 70 400;
#X obj 388 186 abs/adsr~_ds /preset /clarinet/A/midi/adsr;
#X obj 388 206 wg/adsr/adsr_ds /preset /clarinet/A/adsr;
#X obj 389 229 wg/clarinet/ds /preset /clarinet/A;
#X obj 388 248 wg/filt/pipebell_ds /preset /clarinet/A;
#N canvas 591 495 450 300 play_messages 0;
#X obj 12 12 r /midi/note;
#X obj 146 13 r /song/trigger;
#X obj 146 57 r /song/note;
#X obj 146 102 r /song/adsr;
#X obj 12 36 s /clarinet/A/note;
#X obj 146 36 s /clarinet/A/adsr/trigger;
#X obj 146 80 s /clarinet/A/note;
#X obj 146 125 s /clarinet/A/adsr;
#X connect 0 0 4 0;
#X connect 1 0 5 0;
#X connect 2 0 6 0;
#X connect 3 0 7 0;
#X restore 91 11 pd play_messages;
#X obj 336 16 r /midi/breath;
#X obj 336 41 / 127;
#X obj 336 107 line~;
#X msg 336 86 \$1 5;
#X text 376 108 EWI;
#X floatatom 349 66 5 0 0 0 - - - 0;
#X text 93 99 for midi keys;
#N canvas 1016 172 450 300 switch 0;
#X obj 13 12 inlet~ sig1;
#X obj 124 16 inlet~ sig2;
#X obj 244 19 inlet switch;
#X obj 15 261 outlet~ sig;
#X obj 48 73 sel 1;
#X msg 48 98 1;
#X msg 76 98 0;
#X msg 133 102 1;
#X msg 161 102 0;
#X obj 133 77 sel 0;
#X obj 34 138 *~ 1;
#X obj 119 142 *~ 0;
#X connect 0 0 10 0;
#X connect 1 0 11 0;
#X connect 2 0 4 0;
#X connect 2 0 9 0;
#X connect 4 0 5 0;
#X connect 4 1 6 0;
#X connect 5 0 10 1;
#X connect 6 0 10 1;
#X connect 7 0 11 1;
#X connect 8 0 11 1;
#X connect 9 0 7 0;
#X connect 9 1 8 0;
#X connect 10 0 3 0;
#X connect 11 0 3 0;
#X restore 14 293 pd switch;
#X obj 65 273 tgl 15 0 empty empty song/EWI 17 7 0 10 #fcfcfc #000000
#000000 0 1;
#X connect 1 0 0 0;
#X connect 1 0 3 0;
#X connect 2 0 1 0;
#X connect 2 1 1 1;
#X connect 8 0 4 0;
#X connect 9 0 8 1;
#X connect 10 0 13 0;
#X connect 13 0 37 1;
#X connect 13 1 8 0;
#X connect 14 0 15 0;
#X connect 18 0 17 0;
#X connect 19 0 20 0;
#X connect 20 0 24 0;
#X connect 20 1 22 0;
#X connect 21 0 24 1;
#X connect 22 0 23 0;
#X connect 23 0 21 0;
#X connect 30 0 31 0;
#X connect 31 0 33 0;
#X connect 31 0 35 0;
#X connect 32 0 37 0;
#X connect 33 0 32 0;
#X connect 37 0 1 0;
#X connect 38 0 37 2;
#X restore 215 67 pd clarinet_A_original;
#N canvas 49 603 702 477 clarinet_B 0;
#X obj 14 407 throw~ /out/1~;
#X obj 123 407 throw~ /out/2~;
#X text 20 171 ADSR for playing notes (play with bang);
#X text 43 244 additional slap for note attack (not needed);
#X text 38 316 for testing a simple preset here;
#X obj 250 266 spigot;
#X obj 309 266 tgl 15 0 empty empty empty 17 7 0 10 #fcfcfc #000000
#000000 0 1;
#X text 393 172 --- storage ---;
#X text 13 430 (c) GPL algorythmics \, acre \, winfried ritsch;
#X obj 15 221 wg/adsr/vgen~ 94 1000 30 30 90 200;
#X obj 454 299 loadbang;
#X text 453 353 vel is not stored \, so init;
#X obj 15 195 wg/adsr/drive /clarinet/B/adsr 94 1000 30 30 90 200;
#X obj 250 292 s /clarinet/B/blow/slap;
#X obj 38 336 wg/clarinet/slap_and_breath /clarinet/B/blow;
#X text 36 447 Modified by Manuel Planton 2019;
#X msg 454 321 \; /clarinet/B/adsr/vel 95;
#X obj 591 31 switch~;
#X obj 4 11 r /midi/vel;
#X obj 4 33 t f f;
#X obj 31 95 dbtorms;
#X obj 31 53 / 127;
#X obj 31 74 * 94;
#X obj 4 123 abs/adsr~ /clarinet/B/midi/adsr 1 10 200 70 400;
#X obj 391 191 abs/adsr~_ds /preset /clarinet/B/midi/adsr;
#X obj 391 212 wg/adsr/adsr_ds /preset /clarinet/B/adsr;
#X obj 392 235 wg/clarinet/ds /preset /clarinet/B;
#X obj 391 257 wg/filt/pipebell_ds /preset /clarinet/B;
#X obj 14 376 abs/clarinet/dsp_B~ /clarinet/B;
#X obj 591 8 r /clarinet/B/on;
#X text 335 376 changes to clarinet A:;
#X text 352 393 - fixed slope m in the rho_hat function of the reed
;
#X text 353 408 - m is variable and is computed via h_delta_c;
#N canvas 591 495 450 300 play_messages 0;
#X obj 12 12 r /midi/note;
#X obj 146 13 r /song/trigger;
#X obj 146 57 r /song/note;
#X obj 146 102 r /song/adsr;
#X obj 12 36 s /clarinet/B/note;
#X obj 146 36 s /clarinet/B/adsr/trigger;
#X obj 146 80 s /clarinet/B/note;
#X obj 146 125 s /clarinet/B/adsr;
#X connect 0 0 4 0;
#X connect 1 0 5 0;
#X connect 2 0 6 0;
#X connect 3 0 7 0;
#X restore 91 11 pd play_messages;
#X text 93 99 for midi keys;
#N canvas 1035 164 450 300 switch 0;
#X obj 13 12 inlet~ sig1;
#X obj 124 16 inlet~ sig2;
#X obj 244 19 inlet switch;
#X obj 15 261 outlet~ sig;
#X obj 48 73 sel 1;
#X msg 48 98 1;
#X msg 76 98 0;
#X msg 133 102 1;
#X msg 161 102 0;
#X obj 133 77 sel 0;
#X obj 34 138 *~ 1;
#X obj 119 142 *~ 0;
#X connect 0 0 10 0;
#X connect 1 0 11 0;
#X connect 2 0 4 0;
#X connect 2 0 9 0;
#X connect 4 0 5 0;
#X connect 4 1 6 0;
#X connect 5 0 10 1;
#X connect 6 0 10 1;
#X connect 7 0 11 1;
#X connect 8 0 11 1;
#X connect 9 0 7 0;
#X connect 9 1 8 0;
#X connect 10 0 3 0;
#X connect 11 0 3 0;
#X restore 14 293 pd switch;
#X obj 65 273 tgl 15 0 empty empty song/EWI 17 7 0 10 #fcfcfc #000000
#000000 0 1;
#X obj 336 16 r /midi/breath;
#X obj 336 41 / 127;
#X obj 336 107 line~;
#X msg 336 86 \$1 5;
#X floatatom 347 63 5 0 0 0 - - - 0;
#X text 373 108 EWI;
#X connect 5 0 13 0;
#X connect 6 0 5 1;
#X connect 9 0 35 1;
#X connect 9 1 5 0;
#X connect 10 0 16 0;
#X connect 12 0 9 0;
#X connect 14 0 28 0;
#X connect 14 1 28 1;
#X connect 18 0 19 0;
#X connect 19 0 23 0;
#X connect 19 1 21 0;
#X connect 20 0 23 1;
#X connect 21 0 22 0;
#X connect 22 0 20 0;
#X connect 28 0 0 0;
#X connect 28 0 1 0;
#X connect 29 0 17 0;
#X connect 35 0 28 0;
#X connect 36 0 35 2;
#X connect 37 0 38 0;
#X connect 38 0 41 0;
#X connect 38 0 40 0;
#X connect 39 0 35 0;
#X connect 40 0 39 0;
#X restore 215 89 pd clarinet_B;
#N canvas 1168 215 450 348 midi 0;
#X floatatom 47 77 0 0 0 0 - - - 0;
#X obj 28 26 notein;
#X floatatom 28 100 0 0 0 0 - - - 0;
#X floatatom 67 52 0 0 0 0 - - - 0;
#X text 60 104 note;
#X text 77 78 velocity;
#X text 97 54 channel;
#X floatatom 208 80 0 0 0 0 - - - 0;
#X floatatom 192 109 0 0 0 0 - - - 0;
#X floatatom 224 47 0 0 0 0 - - - 0;
#X obj 192 22 ctlin;
#X text 223 112 value;
#X text 239 73 controller number, f 10;
#X text 257 48 channel;
#X text 21 3 (omni);
#X obj 73 321 s /midi/note;
#X obj 67 133 s /midi/vel;
#X obj 28 169 pack f f;
#X obj 28 144 swap;
#X obj 28 256 route 0;
#X obj 67 278 unpack f f;
#X text 82 258 TODO: implement real legato which does not trigger adsr
;
#X obj 192 196 spigot;
#X obj 225 149 sel 2;
#X msg 225 171 1;
#X msg 254 170 0;
#X text 239 194 breath pressure;
#X obj 192 222 s /midi/breath;
#X connect 0 0 16 0;
#X connect 0 0 18 1;
#X connect 1 0 2 0;
#X connect 1 1 0 0;
#X connect 1 2 3 0;
#X connect 2 0 18 0;
#X connect 7 0 23 0;
#X connect 8 0 22 0;
#X connect 10 0 8 0;
#X connect 10 1 7 0;
#X connect 10 2 9 0;
#X connect 17 0 19 0;
#X connect 18 0 17 0;
#X connect 18 1 17 1;
#X connect 19 1 20 0;
#X connect 20 1 15 0;
#X connect 22 0 27 0;
#X connect 23 0 24 0;
#X connect 23 1 25 0;
#X connect 24 0 22 1;
#X connect 25 0 22 1;
#X restore 21 179 pd midi;
#N canvas 296 621 309 459 song 0;
#X obj 24 156 r notedur;
#X obj 24 199 unpack 60 64 100;
#X obj 85 226 pack 64 100;
#X text 92 264 better sound on oktave below \; -);
#X obj 24 221 t b f;
#X obj 96 153 tgl 15 0 empty empty empty 17 7 0 10 #fcfcfc #000000
#000000 0 1;
#X msg 75 126 1, f 2;
#X obj 24 178 spigot 0;
#X msg 37 125 0;
#X obj 43 51 t f b;
#X obj 39 83 s /qlistplayer/song;
#X obj 37 104 r /qlistplayer/end;
#X obj 45 25 r /song;
#X obj 24 312 s /song/trigger;
#X obj 56 339 s /song/note;
#X obj 85 365 s /song/adsr;
#X obj 56 267 - 12;
#X connect 0 0 7 0;
#X connect 1 0 4 0;
#X connect 1 1 2 0;
#X connect 1 2 2 1;
#X connect 2 0 15 0;
#X connect 4 0 13 0;
#X connect 4 1 16 0;
#X connect 5 0 7 1;
#X connect 6 0 5 0;
#X connect 7 0 1 0;
#X connect 8 0 5 0;
#X connect 9 0 10 0;
#X connect 9 1 6 0;
#X connect 11 0 8 0;
#X connect 12 0 9 0;
#X connect 16 0 14 0;
#X restore 21 157 pd song;
#N canvas 49 569 729 511 clarinet_C 0;
#X obj 14 407 throw~ /out/1~;
#X obj 123 407 throw~ /out/2~;
#X text 20 171 ADSR for playing notes (play with bang);
#X text 43 244 additional slap for note attack (not needed);
#X text 38 316 for testing a simple preset here;
#X obj 250 266 spigot;
#X obj 309 266 tgl 15 0 empty empty empty 17 7 0 10 #fcfcfc #000000
#000000 0 1;
#X text 393 172 --- storage ---;
#X text 10 463 (c) GPL algorythmics \, acre \, winfried ritsch;
#X obj 15 221 wg/adsr/vgen~ 94 1000 30 30 90 200;
#X obj 454 299 loadbang;
#X text 453 353 vel is not stored \, so init;
#X text 33 480 Modified by Manuel Planton 2019;
#X obj 591 31 switch~;
#X obj 4 11 r /midi/vel;
#X obj 4 33 t f f;
#X obj 31 95 dbtorms;
#X obj 31 53 / 127;
#X obj 31 74 * 94;
#X obj 4 123 abs/adsr~ /clarinet/C/midi/adsr 1 10 200 70 400;
#X obj 15 195 wg/adsr/drive /clarinet/C/adsr 94 1000 30 30 90 200;
#X obj 250 292 s /clarinet/C/blow/slap;
#X obj 38 336 wg/clarinet/slap_and_breath /clarinet/C/blow;
#X obj 391 191 abs/adsr~_ds /preset /clarinet/C/midi/adsr;
#X obj 391 212 wg/adsr/adsr_ds /preset /clarinet/C/adsr;
#X obj 391 257 wg/filt/pipebell_ds /preset /clarinet/C;
#X msg 454 321 \; /clarinet/C/adsr/vel 95;
#X obj 14 376 abs/clarinet/dsp_C~ /clarinet/C;
#X obj 591 8 r /clarinet/C/on;
#X text 322 379 changes to clarinet B:;
#X text 348 400 - controllable parameter h_delta_c which is referred
to here as h_c for convenience;
#X text 347 431 - complementary reflection and transmission filters
of the bell with the same cutoff frequency;
#X text 347 464 - controllable parameter portamento (waveguide delay
fade time);
#N canvas 591 495 450 300 play_messages 0;
#X obj 12 12 r /midi/note;
#X obj 146 13 r /song/trigger;
#X obj 146 57 r /song/note;
#X obj 146 102 r /song/adsr;
#X obj 12 36 s /clarinet/C/note;
#X obj 146 36 s /clarinet/C/adsr/trigger;
#X obj 146 80 s /clarinet/C/note;
#X obj 146 125 s /clarinet/C/adsr;
#X connect 0 0 4 0;
#X connect 1 0 5 0;
#X connect 2 0 6 0;
#X connect 3 0 7 0;
#X restore 91 11 pd play_messages;
#X obj 391 233 abs/clarinet/ds_C /preset /clarinet/C;
#X obj 336 16 r /midi/breath;
#X obj 336 41 / 127;
#X obj 336 107 line~;
#X msg 336 86 \$1 5;
#N canvas 1016 172 450 300 switch 0;
#X obj 13 12 inlet~ sig1;
#X obj 124 16 inlet~ sig2;
#X obj 244 19 inlet switch;
#X obj 15 261 outlet~ sig;
#X obj 48 73 sel 1;
#X msg 48 98 1;
#X msg 76 98 0;
#X msg 133 102 1;
#X msg 161 102 0;
#X obj 133 77 sel 0;
#X obj 34 138 *~ 1;
#X obj 119 142 *~ 0;
#X connect 0 0 10 0;
#X connect 1 0 11 0;
#X connect 2 0 4 0;
#X connect 2 0 9 0;
#X connect 4 0 5 0;
#X connect 4 1 6 0;
#X connect 5 0 10 1;
#X connect 6 0 10 1;
#X connect 7 0 11 1;
#X connect 8 0 11 1;
#X connect 9 0 7 0;
#X connect 9 1 8 0;
#X connect 10 0 3 0;
#X connect 11 0 3 0;
#X restore 14 293 pd switch;
#X obj 65 273 tgl 15 0 empty empty song/EWI 17 7 0 10 #fcfcfc #000000
#000000 0 1;
#X text 93 99 for midi keys;
#X text 376 108 EWI;
#X floatatom 349 66 5 0 0 0 - - - 0;
#X connect 5 0 21 0;
#X connect 6 0 5 1;
#X connect 9 0 39 1;
#X connect 9 1 5 0;
#X connect 10 0 26 0;
#X connect 14 0 15 0;
#X connect 15 0 19 0;
#X connect 15 1 17 0;
#X connect 16 0 19 1;
#X connect 17 0 18 0;
#X connect 18 0 16 0;
#X connect 20 0 9 0;
#X connect 22 0 27 0;
#X connect 22 1 27 1;
#X connect 27 0 0 0;
#X connect 27 0 1 0;
#X connect 28 0 13 0;
#X connect 35 0 36 0;
#X connect 36 0 38 0;
#X connect 36 0 43 0;
#X connect 37 0 39 0;
#X connect 38 0 37 0;
#X connect 39 0 27 0;
#X connect 40 0 39 2;
#X restore 215 109 pd clarinet_C;
#N canvas 49 603 702 477 clarinet_D 0;
#X obj 14 407 throw~ /out/1~;
#X obj 123 407 throw~ /out/2~;
#X text 20 171 ADSR for playing notes (play with bang);
#X text 43 244 additional slap for note attack (not needed);
#X text 38 316 for testing a simple preset here;
#X obj 250 266 spigot;
#X obj 309 266 tgl 15 0 empty empty empty 17 7 0 10 #fcfcfc #000000
#000000 0 1;
#X text 393 172 --- storage ---;
#X text 13 430 (c) GPL algorythmics \, acre \, winfried ritsch;
#X obj 15 221 wg/adsr/vgen~ 94 1000 30 30 90 200;
#X obj 454 299 loadbang;
#X text 453 353 vel is not stored \, so init;
#X text 36 447 Modified by Manuel Planton 2019;
#X obj 591 31 switch~;
#X obj 4 11 r /midi/vel;
#X obj 4 33 t f f;
#X obj 31 95 dbtorms;
#X obj 31 53 / 127;
#X obj 31 74 * 94;
#X msg 454 321 \; /clarinet/C/adsr/vel 95;
#X obj 591 8 r /clarinet/D/on;
#X obj 4 123 abs/adsr~ /clarinet/D/midi/adsr 1 10 200 70 400;
#X obj 15 195 wg/adsr/drive /clarinet/D/adsr 94 1000 30 30 90 200;
#X obj 250 292 s /clarinet/D/blow/slap;
#X obj 38 336 wg/clarinet/slap_and_breath /clarinet/D/blow;
#X obj 391 191 abs/adsr~_ds /preset /clarinet/D/midi/adsr;
#X obj 391 212 wg/adsr/adsr_ds /preset /clarinet/D/adsr;
#X obj 391 257 wg/filt/pipebell_ds /preset /clarinet/D;
#X obj 14 376 abs/clarinet/dsp_D~ /clarinet/D;
#X text 356 379 changes to clarinet C:;
#N canvas 620 495 450 300 play_messages 0;
#X obj 12 12 r /midi/note;
#X obj 12 36 s /clarinet/D/note;
#X obj 146 13 r /song/trigger;
#X obj 146 36 s /clarinet/D/adsr/trigger;
#X obj 146 57 r /song/note;
#X obj 146 80 s /clarinet/D/note;
#X obj 146 102 r /song/adsr;
#X obj 146 125 s /clarinet/D/adsr;
#X connect 0 0 1 0;
#X connect 2 0 3 0;
#X connect 4 0 5 0;
#X connect 6 0 7 0;
#X restore 91 11 pd play_messages;
#X obj 391 234 abs/clarinet/ds_D /preset /clarinet/D;
#X text 343 402 - added parameter k as exponent of rho_hat for brightness
control of the reed or mouthpiece;
#X text 93 99 for midi keys;
#X obj 336 16 r /midi/breath;
#X obj 336 41 / 127;
#X obj 336 107 line~;
#X msg 336 86 \$1 5;
#X text 376 108 EWI;
#X floatatom 349 66 5 0 0 0 - - - 0;
#N canvas 1016 172 450 300 switch 0;
#X obj 13 12 inlet~ sig1;
#X obj 124 16 inlet~ sig2;
#X obj 244 19 inlet switch;
#X obj 15 261 outlet~ sig;
#X obj 48 73 sel 1;
#X msg 48 98 1;
#X msg 76 98 0;
#X msg 133 102 1;
#X msg 161 102 0;
#X obj 133 77 sel 0;
#X obj 34 138 *~ 1;
#X obj 119 142 *~ 0;
#X connect 0 0 10 0;
#X connect 1 0 11 0;
#X connect 2 0 4 0;
#X connect 2 0 9 0;
#X connect 4 0 5 0;
#X connect 4 1 6 0;
#X connect 5 0 10 1;
#X connect 6 0 10 1;
#X connect 7 0 11 1;
#X connect 8 0 11 1;
#X connect 9 0 7 0;
#X connect 9 1 8 0;
#X connect 10 0 3 0;
#X connect 11 0 3 0;
#X restore 14 293 pd switch;
#X obj 65 273 tgl 15 0 empty empty song/EWI 17 7 0 10 #fcfcfc #000000
#000000 0 1;
#X connect 5 0 23 0;
#X connect 6 0 5 1;
#X connect 9 0 40 1;
#X connect 9 1 5 0;
#X connect 10 0 19 0;
#X connect 14 0 15 0;
#X connect 15 0 21 0;
#X connect 15 1 17 0;
#X connect 16 0 21 1;
#X connect 17 0 18 0;
#X connect 18 0 16 0;
#X connect 20 0 13 0;
#X connect 22 0 9 0;
#X connect 24 0 28 0;
#X connect 24 1 28 1;
#X connect 28 0 0 0;
#X connect 28 0 1 0;
#X connect 34 0 35 0;
#X connect 35 0 37 0;
#X connect 35 0 39 0;
#X connect 36 0 40 0;
#X connect 37 0 36 0;
#X connect 40 0 28 0;
#X connect 41 0 40 2;
#X restore 215 129 pd clarinet_D;
#N canvas 49 603 817 477 sax_A 0;
#X obj 14 407 throw~ /out/1~;
#X obj 123 407 throw~ /out/2~;
#X text 20 171 ADSR for playing notes (play with bang);
#X text 43 244 additional slap for note attack (not needed);
#X text 38 316 for testing a simple preset here;
#X obj 250 266 spigot;
#X obj 309 266 tgl 15 0 empty empty empty 17 7 0 10 #fcfcfc #000000
#000000 0 1;
#X text 393 172 --- storage ---;
#X text 13 430 (c) GPL algorythmics \, acre \, winfried ritsch;
#X obj 15 221 wg/adsr/vgen~ 94 1000 30 30 90 200;
#X obj 454 299 loadbang;
#X text 453 353 vel is not stored \, so init;
#X text 36 447 Modified by Manuel Planton 2019;
#X obj 591 31 switch~;
#X obj 4 11 r /midi/vel;
#X obj 4 33 t f f;
#X obj 31 95 dbtorms;
#X obj 31 53 / 127;
#X obj 31 74 * 94;
#N canvas 560 495 452 300 play_messages 0;
#X obj 12 12 r /midi/note;
#X obj 146 13 r /song/trigger;
#X obj 146 57 r /song/note;
#X obj 146 102 r /song/adsr;
#X obj 146 36 s /sax/A/adsr/trigger;
#X obj 146 79 s /sax/A/note;
#X obj 146 125 s /sax/A/adsr;
#X obj 12 36 s /sax/A/note;
#X connect 0 0 7 0;
#X connect 1 0 4 0;
#X connect 2 0 5 0;
#X connect 3 0 6 0;
#X restore 91 11 pd play_messages;
#X obj 391 234 abs/sax/ds_A /preset /sax/A;
#X obj 4 123 abs/adsr~ /sax/A/midi/adsr 1 10 200 70 400;
#X obj 591 8 r /sax/A/on;
#X obj 15 195 wg/adsr/drive /sax/A/adsr 94 1000 30 30 90 200;
#X obj 250 292 s /sax/A/blow/slap;
#X obj 38 335 wg/clarinet/slap_and_breath /sax/A/blow;
#X obj 14 376 abs/sax/dsp_A~ /sax/A;
#X msg 454 321 \; /sax/A/adsr/vel 95;
#X obj 391 191 abs/adsr~_ds /preset /sax/A/midi/adsr;
#X obj 391 212 wg/adsr/adsr_ds /preset /sax/A/adsr;
#X obj 391 257 wg/filt/pipebell_ds /preset /sax/A;
#X text 356 379 changes to clarinet D:;
#X text 367 397 - added cone all-pass R_o \, which makes the system
unstable and it does not represent the physics because the reed function
- air column coupling is derived for a cylinder;
#X text 93 99 for midi keys;
#X obj 336 16 r /midi/breath;
#X obj 336 41 / 127;
#X obj 336 107 line~;
#X msg 336 86 \$1 5;
#X text 376 108 EWI;
#X floatatom 349 66 5 0 0 0 - - - 0;
#N canvas 1016 172 450 300 switch 0;
#X obj 13 12 inlet~ sig1;
#X obj 124 16 inlet~ sig2;
#X obj 244 19 inlet switch;
#X obj 15 261 outlet~ sig;
#X obj 48 73 sel 1;
#X msg 48 98 1;
#X msg 76 98 0;
#X msg 133 102 1;
#X msg 161 102 0;
#X obj 133 77 sel 0;
#X obj 34 138 *~ 1;
#X obj 119 142 *~ 0;
#X connect 0 0 10 0;
#X connect 1 0 11 0;
#X connect 2 0 4 0;
#X connect 2 0 9 0;
#X connect 4 0 5 0;
#X connect 4 1 6 0;
#X connect 5 0 10 1;
#X connect 6 0 10 1;
#X connect 7 0 11 1;
#X connect 8 0 11 1;
#X connect 9 0 7 0;
#X connect 9 1 8 0;
#X connect 10 0 3 0;
#X connect 11 0 3 0;
#X restore 14 293 pd switch;
#X obj 65 273 tgl 15 0 empty empty song/EWI 17 7 0 10 #fcfcfc #000000
#000000 0 1;
#X text 444 81 WARNING: this patch is unstable! Volume will blow up
immediately!!!;
#X connect 5 0 24 0;
#X connect 6 0 5 1;
#X connect 9 0 40 1;
#X connect 9 1 5 0;
#X connect 10 0 27 0;
#X connect 14 0 15 0;
#X connect 15 0 21 0;
#X connect 15 1 17 0;
#X connect 16 0 21 1;
#X connect 17 0 18 0;
#X connect 18 0 16 0;
#X connect 22 0 13 0;
#X connect 23 0 9 0;
#X connect 25 0 26 0;
#X connect 25 1 26 1;
#X connect 26 0 0 0;
#X connect 26 0 1 0;
#X connect 34 0 35 0;
#X connect 35 0 37 0;
#X connect 35 0 39 0;
#X connect 36 0 40 0;
#X connect 37 0 36 0;
#X connect 40 0 26 0;
#X connect 41 0 40 2;
#X restore 215 186 pd sax_A;
#N canvas 49 603 817 477 sax_B 0;
#X obj 14 407 throw~ /out/1~;
#X obj 123 407 throw~ /out/2~;
#X text 20 171 ADSR for playing notes (play with bang);
#X text 43 244 additional slap for note attack (not needed);
#X text 38 316 for testing a simple preset here;
#X obj 250 266 spigot;
#X obj 309 266 tgl 15 0 empty empty empty 17 7 0 10 #fcfcfc #000000
#000000 0 1;
#X text 393 172 --- storage ---;
#X text 13 430 (c) GPL algorythmics \, acre \, winfried ritsch;
#X obj 15 221 wg/adsr/vgen~ 94 1000 30 30 90 200;
#X obj 454 299 loadbang;
#X text 453 353 vel is not stored \, so init;
#X text 36 447 Modified by Manuel Planton 2019;
#X obj 591 31 switch~;
#X obj 4 11 r /midi/vel;
#X obj 4 33 t f f;
#X obj 31 95 dbtorms;
#X obj 31 53 / 127;
#X obj 31 74 * 94;
#N canvas 531 495 452 300 play_messages 0;
#X obj 12 12 r /midi/note;
#X obj 146 13 r /song/trigger;
#X obj 146 57 r /song/note;
#X obj 146 102 r /song/adsr;
#X obj 12 36 s /sax/B/note;
#X obj 146 36 s /sax/B/adsr/trigger;
#X obj 146 79 s /sax/B/note;
#X obj 146 125 s /sax/B/adsr;
#X connect 0 0 4 0;
#X connect 1 0 5 0;
#X connect 2 0 6 0;
#X connect 3 0 7 0;
#X restore 91 11 pd play_messages;
#X obj 591 8 r /sax/B/on;
#X obj 4 123 abs/adsr~ /sax/B/midi/adsr 1 10 200 70 400;
#X obj 15 195 wg/adsr/drive /sax/B/adsr 94 1000 30 30 90 200;
#X obj 250 292 s /sax/B/blow/slap;
#X obj 38 335 wg/clarinet/slap_and_breath /sax/B/blow;
#X obj 391 191 abs/adsr~_ds /preset /sax/B/midi/adsr;
#X obj 391 212 wg/adsr/adsr_ds /preset /sax/B/adsr;
#X obj 391 257 wg/filt/pipebell_ds /preset /sax/B;
#X msg 454 321 \; /sax/B/adsr/vel 95;
#X obj 14 376 abs/sax/dsp_B~ /sax/B;
#X obj 391 234 abs/sax/ds_B /preset /sax/B;
#X text 356 379 changes to sax A:;
#X text 367 426 - the parameter set is difficult to tune to get a sound
out of it;
#X text 367 395 - implementation of the "Cyclone" cylinder-cone structure
as resonator;
#X text 93 99 for midi keys;
#N canvas 1016 172 450 300 switch 0;
#X obj 13 12 inlet~ sig1;
#X obj 124 16 inlet~ sig2;
#X obj 244 19 inlet switch;
#X obj 15 261 outlet~ sig;
#X obj 48 73 sel 1;
#X msg 48 98 1;
#X msg 76 98 0;
#X msg 133 102 1;
#X msg 161 102 0;
#X obj 133 77 sel 0;
#X obj 34 138 *~ 1;
#X obj 119 142 *~ 0;
#X connect 0 0 10 0;
#X connect 1 0 11 0;
#X connect 2 0 4 0;
#X connect 2 0 9 0;
#X connect 4 0 5 0;
#X connect 4 1 6 0;
#X connect 5 0 10 1;
#X connect 6 0 10 1;
#X connect 7 0 11 1;
#X connect 8 0 11 1;
#X connect 9 0 7 0;
#X connect 9 1 8 0;
#X connect 10 0 3 0;
#X connect 11 0 3 0;
#X restore 14 293 pd switch;
#X obj 65 273 tgl 15 0 empty empty song/EWI 17 7 0 10 #fcfcfc #000000
#000000 0 1;
#X obj 336 16 r /midi/breath;
#X obj 336 41 / 127;
#X obj 336 107 line~;
#X msg 336 86 \$1 5;
#X text 376 108 EWI;
#X floatatom 349 66 5 0 0 0 - - - 0;
#X connect 5 0 23 0;
#X connect 6 0 5 1;
#X connect 9 0 35 1;
#X connect 9 1 5 0;
#X connect 10 0 28 0;
#X connect 14 0 15 0;
#X connect 15 0 21 0;
#X connect 15 1 17 0;
#X connect 16 0 21 1;
#X connect 17 0 18 0;
#X connect 18 0 16 0;
#X connect 20 0 13 0;
#X connect 22 0 9 0;
#X connect 24 0 29 0;
#X connect 24 1 29 1;
#X connect 29 0 0 0;
#X connect 29 0 1 0;
#X connect 35 0 29 0;
#X connect 36 0 35 2;
#X connect 37 0 38 0;
#X connect 38 0 40 0;
#X connect 38 0 42 0;
#X connect 39 0 35 0;
#X connect 40 0 39 0;
#X restore 215 206 pd sax_B;
#N canvas 64 526 817 477 sax_C 0;
#X obj 14 407 throw~ /out/1~;
#X obj 123 407 throw~ /out/2~;
#X text 20 171 ADSR for playing notes (play with bang);
#X text 43 244 additional slap for note attack (not needed);
#X text 38 316 for testing a simple preset here;
#X obj 250 266 spigot;
#X obj 309 266 tgl 15 0 empty empty empty 17 7 0 10 #fcfcfc #000000
#000000 0 1;
#X text 393 172 --- storage ---;
#X text 13 430 (c) GPL algorythmics \, acre \, winfried ritsch;
#X obj 15 221 wg/adsr/vgen~ 94 1000 30 30 90 200;
#X obj 454 299 loadbang;
#X text 453 353 vel is not stored \, so init;
#X text 36 447 Modified by Manuel Planton 2019;
#X obj 591 31 switch~;
#X obj 4 11 r /midi/vel;
#X obj 4 33 t f f;
#X obj 31 95 dbtorms;
#X obj 31 53 / 127;
#X obj 31 74 * 94;
#N canvas 531 495 452 300 play_messages 0;
#X obj 12 12 r /midi/note;
#X obj 146 13 r /song/trigger;
#X obj 146 57 r /song/note;
#X obj 146 102 r /song/adsr;
#X obj 12 36 s /sax/C/note;
#X obj 146 36 s /sax/C/adsr/trigger;
#X obj 146 79 s /sax/C/note;
#X obj 146 125 s /sax/C/adsr;
#X connect 0 0 4 0;
#X connect 1 0 5 0;
#X connect 2 0 6 0;
#X connect 3 0 7 0;
#X restore 91 11 pd play_messages;
#X obj 4 123 abs/adsr~ /sax/C/midi/adsr 1 10 200 70 400;
#X obj 15 195 wg/adsr/drive /sax/C/adsr 94 1000 30 30 90 200;
#X obj 591 8 r /sax/C/on;
#X obj 250 292 s /sax/C/blow/slap;
#X obj 38 335 wg/clarinet/slap_and_breath /sax/C/blow;
#X msg 454 321 \; /sax/C/adsr/vel 95;
#X obj 391 191 abs/adsr~_ds /preset /sax/C/midi/adsr;
#X obj 391 212 wg/adsr/adsr_ds /preset /sax/C/adsr;
#X obj 14 376 abs/sax/dsp_C~ /sax/C;
#X obj 391 234 abs/sax/ds_C /preset /sax/C;
#X obj 391 257 wg/filt/pipebell_ds /preset /sax/C;
#X text 356 379 changes to sax B:;
#X text 368 396 - "blowed string" implementation;
#X obj 336 16 r /midi/breath;
#X obj 336 41 / 127;
#X obj 336 107 line~;
#X msg 336 86 \$1 5;
#X text 376 108 EWI;
#X floatatom 349 66 5 0 0 0 - - - 0;
#X text 93 99 for midi keys;
#N canvas 1016 172 450 300 switch 0;
#X obj 13 12 inlet~ sig1;
#X obj 124 16 inlet~ sig2;
#X obj 244 19 inlet switch;
#X obj 15 261 outlet~ sig;
#X obj 48 73 sel 1;
#X msg 48 98 1;
#X msg 76 98 0;
#X msg 133 102 1;
#X msg 161 102 0;
#X obj 133 77 sel 0;
#X obj 34 138 *~ 1;
#X obj 119 142 *~ 0;
#X connect 0 0 10 0;
#X connect 1 0 11 0;
#X connect 2 0 4 0;
#X connect 2 0 9 0;
#X connect 4 0 5 0;
#X connect 4 1 6 0;
#X connect 5 0 10 1;
#X connect 6 0 10 1;
#X connect 7 0 11 1;
#X connect 8 0 11 1;
#X connect 9 0 7 0;
#X connect 9 1 8 0;
#X connect 10 0 3 0;
#X connect 11 0 3 0;
#X restore 14 293 pd switch;
#X obj 65 273 tgl 15 0 empty empty song/EWI 17 7 0 10 #fcfcfc #000000
#000000 0 1;
#X connect 5 0 23 0;
#X connect 6 0 5 1;
#X connect 9 0 40 1;
#X connect 9 1 5 0;
#X connect 10 0 25 0;
#X connect 14 0 15 0;
#X connect 15 0 20 0;
#X connect 15 1 17 0;
#X connect 16 0 20 1;
#X connect 17 0 18 0;
#X connect 18 0 16 0;
#X connect 21 0 9 0;
#X connect 22 0 13 0;
#X connect 24 0 28 0;
#X connect 24 1 28 1;
#X connect 28 0 0 0;
#X connect 28 0 1 0;
#X connect 33 0 34 0;
#X connect 34 0 36 0;
#X connect 34 0 38 0;
#X connect 35 0 40 0;
#X connect 36 0 35 0;
#X connect 40 0 28 0;
#X connect 41 0 40 2;
#X restore 215 226 pd sax_C;
#X text 271 186 conic;
#X text 271 204 cyclone;
#X text 272 226 blowed string;
