#N canvas 49 89 972 503 10;
#X obj 908 309 outlet~;
#X obj 702 47 block~ 4;
#X obj 702 8 r \$1/wg/block;
#X text 787 9 if really needed higer freqs;
#X obj 31 51 inlet~;
#X obj 37 196 inlet~;
#N canvas 49 330 707 661 control 1;
#X obj 32 44 r \$1/note;
#X obj 32 94 mtof;
#X text 27 25 control;
#X text 105 40 midi note nr;
#X obj 31 509 / 100;
#X obj 32 69 - 0;
#X obj 95 82 r \$1/detune;
#X text 179 83 for Bb clarinet or so.;
#X obj 31 540 - 0.035;
#X text 83 534 experimentally determined delay compensation for lop~
as loop filter with fc=1500Hz;
#X msg 31 487 500 \$1;
#X text 76 487 1000ms/2 since half wavelength;
#X obj 31 574 s \$1/wg-cone/delay;
#X obj 301 192 r \$1/cyclone/beta;
#X text 227 267 L;
#X text 259 357 x_0;
#X obj 281 306 *;
#X obj 281 281 t b f;
#X obj 281 337 /;
#X msg 334 282 1 \$1;
#X obj 334 312 -;
#X obj 301 222 t f f;
#X obj 229 248 /;
#X msg 229 221 686 \$1;
#X text 427 268 L...saxophone conical air column length;
#X obj 281 438 s \$1/wg-cylinder/delay;
#X obj 281 410 / 3;
#X text 308 405 cylindrical section length is a third of the truncated
cone length;
#X obj 32 122 t f f;
#X obj 289 360 s \$1/cyclone/x_0;
#X connect 0 0 5 0;
#X connect 1 0 28 0;
#X connect 4 0 8 0;
#X connect 5 0 1 0;
#X connect 6 0 5 1;
#X connect 8 0 12 0;
#X connect 10 0 4 0;
#X connect 13 0 21 0;
#X connect 16 0 18 0;
#X connect 17 0 16 0;
#X connect 17 1 16 1;
#X connect 18 0 26 0;
#X connect 18 0 29 0;
#X connect 19 0 20 0;
#X connect 20 0 18 1;
#X connect 21 0 17 0;
#X connect 21 1 19 0;
#X connect 22 0 16 0;
#X connect 23 0 22 0;
#X connect 26 0 25 0;
#X connect 28 0 10 0;
#X connect 28 1 23 0;
#X restore 318 50 pd control;
#X obj 31 121 wg/blow/noise~ \$1/blow;
#X text 35 179 for slap shortcut expression;
#X obj 30 92 wg/blow/pressure~ \$1/blow;
#X text 57 160 TODO: a vibrato of some kind should be added...;
#X text 29 453 (c) GPL algorythmics \, acre \, winfried ritsch;
#X text 76 71 add a pressure receiver;
#X obj 785 283 pipebell~ \$1/pipebell;
#X obj 30 296 ../reed/exponential~ \$1/reed;
#X text 56 473 modified by Manuel Planton 2019;
#X obj 804 358 env~;
#X floatatom 804 381 5 0 0 0 - - -, f 5;
#X obj 882 360 env~;
#X floatatom 882 383 5 0 0 0 - - -, f 5;
#N canvas 812 287 726 406 R_j 0;
#X obj 9 7 inlet~;
#X obj 10 374 outlet~;
#X obj 10 331 fexpr~ $f2 * ($x1[0] + $x1[-1]) + $f3 * $y1[-1];
#X text 153 308 A;
#X text 293 310 a_1;
#X text 330 220 alpha...frequency warp constant of bilinear transform
;
#X obj 175 47 * 2;
#X msg 175 70 343 \$1;
#X obj 175 93 /;
#X text 201 98 gamma;
#X msg 292 220 88051;
#X obj 264 245 -;
#X obj 304 244 +;
#X obj 263 166 t f f;
#X obj 289 275 /;
#X obj 292 197 t b f;
#X obj 252 197 t b f;
#X msg 252 220 88051;
#X obj 99 197 * -1;
#X obj 99 173 t f f;
#X obj 140 269 /;
#X msg 143 220 88051;
#X obj 155 244 +;
#X obj 143 197 t b f;
#X text 423 309 A = -gamma/(alpha+gamma);
#X obj 175 117 t f f;
#X text 186 25 x_0;
#X obj 175 7 r \$1/cyclone/x_0;
#X text 465 372 Manuel Planton 2019;
#X connect 0 0 2 0;
#X connect 2 0 1 0;
#X connect 6 0 7 0;
#X connect 7 0 8 0;
#X connect 8 0 25 0;
#X connect 10 0 12 0;
#X connect 11 0 14 0;
#X connect 12 0 14 1;
#X connect 13 0 16 0;
#X connect 13 1 15 0;
#X connect 14 0 2 2;
#X connect 15 0 10 0;
#X connect 15 1 12 1;
#X connect 16 0 17 0;
#X connect 16 1 11 1;
#X connect 17 0 11 0;
#X connect 18 0 20 0;
#X connect 19 0 18 0;
#X connect 19 1 23 0;
#X connect 20 0 2 1;
#X connect 21 0 22 0;
#X connect 22 0 20 1;
#X connect 23 0 21 0;
#X connect 23 1 22 1;
#X connect 25 0 19 0;
#X connect 25 1 13 0;
#X connect 27 0 6 0;
#X restore 448 308 pd R_j;
#X text 571 166 TODO: waveguides in subpatches packen -> übersichtlicher
;
#X text 32 11 sax/dsp~ <id>;
#X obj 578 264 wg/wave/out~ \$1/wg-cone 1.3;
#X obj 580 372 wg/wave/in~ \$1/wg-cone 100;
#X obj 210 259 wg/wave/out~ \$1/wg-cylinder 1.3;
#X obj 216 374 wg/wave/in~ \$1/wg-cylinder 100;
#X text 182 395 cyl_forward_in;
#X text 383 394 cyl_backward_in;
#X text 183 237 cyl_backward_out;
#X text 522 242 cone_backward_out;
#X text 699 241 cone_forward_out;
#X text 360 236 cyl_forward_out;
#X text 533 395 cone_forward_in;
#X text 685 395 cone_backward_in;
#X text 836 263 R_e;
#X connect 2 0 1 0;
#X connect 4 0 9 0;
#X connect 5 0 14 0;
#X connect 7 0 14 0;
#X connect 9 0 7 0;
#X connect 13 0 16 0;
#X connect 13 0 24 1;
#X connect 13 1 0 0;
#X connect 13 1 18 0;
#X connect 14 0 26 0;
#X connect 16 0 17 0;
#X connect 18 0 19 0;
#X connect 20 0 24 0;
#X connect 20 0 26 1;
#X connect 23 0 26 1;
#X connect 23 0 20 0;
#X connect 23 1 13 0;
#X connect 25 0 14 1;
#X connect 25 1 20 0;
