#N canvas 49 496 680 503 10;
#X obj 608 311 outlet~;
#X obj 275 92 block~ 4;
#X obj 275 53 r \$1/wg/block;
#X text 270 22 if really needed higer freqs;
#X obj 31 51 inlet~;
#X obj 52 213 inlet~;
#N canvas 410 489 450 300 control 0;
#X obj 32 44 r \$1/note;
#X obj 32 94 mtof;
#X text 27 25 control;
#X text 105 40 midi note nr;
#X obj 32 146 / 100;
#X text 95 125 1000ms/4 since quarter wavelength;
#X obj 32 211 s \$1/wg/delay;
#X obj 32 69 - 0;
#X obj 95 82 r \$1/detune;
#X text 179 83 for Bb clarinet or so.;
#X msg 32 124 250 \$1;
#X obj 32 177 - 0.035;
#X text 84 171 experimentally determined delay compensation for lop~
as loop filter with fc=1500Hz;
#X obj 97 109 s \$1/freq;
#X connect 0 0 7 0;
#X connect 1 0 10 0;
#X connect 1 0 13 0;
#X connect 4 0 11 0;
#X connect 7 0 1 0;
#X connect 8 0 7 1;
#X connect 10 0 4 0;
#X connect 11 0 6 0;
#X restore 275 131 pd control;
#X obj 31 121 wg/blow/noise~ \$1/blow;
#X text 50 196 for slap shortcut expression;
#X obj 30 92 wg/blow/pressure~ \$1/blow;
#X obj 243 224 wg/wave/out~ \$1/wg 1.3;
#X obj 243 424 wg/wave/in~ \$1/wg 1000;
#X text 72 177 TODO: a vibrato of some kind should be added...;
#X text 29 453 (c) GPL algorythmics \, acre \, winfried ritsch;
#X text 30 34 clarinet instrument with reed and blow;
#X text 76 71 add a pressure receiver;
#X text 32 11 wg/clarinet/dsp~ <id>;
#X obj 30 296 ../reed/exponential~ \$1/reed;
#X text 56 473 modified by Manuel Planton 2019;
#X obj 504 360 env~;
#X floatatom 504 383 5 0 0 0 - - -, f 5;
#X obj 582 362 env~;
#X floatatom 582 385 5 0 0 0 - - -, f 5;
#X text 343 132 change later to half wavelength;
#X floatatom 323 312 5 0 0 1 beta - -, f 5;
#X obj 323 292 r /sax/A/R_o/beta;
#N canvas 439 112 795 601 R_o_allpass 0;
#X obj 9 534 fexpr~ -$f2 * $x1[0] - $x1[-1] - $f2 * $y1[-1];
#X obj 9 13 inlet~;
#X obj 8 564 outlet~;
#X obj 146 42 r \$1/freq;
#X text 162 121 L;
#X obj 264 22 inlet beta;
#X text 203 285 x_0;
#X obj 192 216 *;
#X obj 192 191 t b f;
#X obj 192 267 /;
#X msg 245 192 1 \$1;
#X obj 245 222 -;
#X obj 264 65 t f f;
#X obj 212 328 * 87850;
#X msg 212 355 343 \$1;
#X text 266 329 x_0 * alpha;
#X text 304 312 alpha...frequency warp constant of bilinear transform
;
#X text 339 24 beta...ratio of truncated cone input to output radius
;
#X obj 221 434 -;
#X obj 236 471 /;
#X obj 233 401 t l l;
#X obj 251 436 +;
#X text 258 484 a_0...filter coefficient;
#X text 296 534 first order all-pass;
#X obj 146 103 /;
#X text 326 144 L...saxophone air column length;
#X floatatom 284 252 5 0 0 0 - - -, f 5;
#X obj 264 44 clip 0 0.9999;
#X msg 146 76 686 \$1;
#X connect 0 0 2 0;
#X connect 1 0 0 0;
#X connect 3 0 28 0;
#X connect 5 0 27 0;
#X connect 7 0 9 0;
#X connect 8 0 7 0;
#X connect 8 1 7 1;
#X connect 9 0 13 0;
#X connect 10 0 11 0;
#X connect 11 0 9 1;
#X connect 11 0 26 0;
#X connect 12 0 8 0;
#X connect 12 1 10 0;
#X connect 13 0 14 0;
#X connect 14 0 20 0;
#X connect 18 0 19 0;
#X connect 19 0 0 1;
#X connect 20 0 18 0;
#X connect 20 1 21 0;
#X connect 21 0 19 1;
#X connect 24 0 7 0;
#X connect 27 0 12 0;
#X connect 28 0 24 0;
#X restore 242 332 pd R_o_allpass;
#X text 248 355 delay free loop -> unstable;
#X obj 485 285 pipebell~ \$1/pipebell;
#X connect 2 0 1 0;
#X connect 4 0 9 0;
#X connect 5 0 17 0;
#X connect 7 0 17 0;
#X connect 9 0 7 0;
#X connect 10 0 17 1;
#X connect 10 0 26 0;
#X connect 10 1 28 0;
#X connect 17 0 11 0;
#X connect 19 0 20 0;
#X connect 21 0 22 0;
#X connect 24 0 26 1;
#X connect 25 0 24 0;
#X connect 26 0 11 0;
#X connect 28 0 19 0;
#X connect 28 0 11 1;
#X connect 28 1 0 0;
#X connect 28 1 21 0;
