#N canvas 49 496 834 558 10;
#X obj 760 324 outlet~;
#X obj 497 86 block~ 4;
#X obj 497 47 r \$1/wg/block;
#X text 492 16 if really needed higer freqs;
#X obj 31 51 inlet~;
#X obj 42 157 inlet~;
#N canvas 265 489 450 449 control 1;
#X obj 32 44 r \$1/note;
#X obj 32 94 mtof;
#X text 27 25 control;
#X text 105 40 midi note nr;
#X obj 32 146 / 100;
#X obj 32 69 - 0;
#X obj 95 82 r \$1/detune;
#X text 179 83 for Bb clarinet or so.;
#X obj 32 177 - 0.035;
#X text 84 171 experimentally determined delay compensation for lop~
as loop filter with fc=1500Hz;
#X obj 97 109 s \$1/freq;
#X msg 32 124 500 \$1;
#X text 95 125 1000ms/2 since half wavelength;
#X obj 152 221 r \$1/blow_position;
#X obj 32 391 s \$1/wg-left/delay;
#X obj 152 391 s \$1/wg-right/delay;
#X obj 41 270 t b f;
#X text 271 223 0...left \, 1...right;
#X obj 152 275 -;
#X msg 152 252 1 \$1;
#X obj 32 208 t f f;
#X obj 152 298 t b f;
#X floatatom 167 357 5 0 0 0 - - -, f 5;
#X floatatom 47 331 5 0 0 0 - - -, f 5;
#X obj 32 298 *;
#X obj 152 328 *;
#X connect 0 0 5 0;
#X connect 1 0 11 0;
#X connect 1 0 10 0;
#X connect 4 0 8 0;
#X connect 5 0 1 0;
#X connect 6 0 5 1;
#X connect 8 0 20 0;
#X connect 11 0 4 0;
#X connect 13 0 16 0;
#X connect 13 0 19 0;
#X connect 16 0 24 0;
#X connect 16 1 24 1;
#X connect 18 0 21 0;
#X connect 19 0 18 0;
#X connect 20 0 24 0;
#X connect 20 1 25 0;
#X connect 21 0 25 0;
#X connect 21 1 25 1;
#X connect 24 0 14 0;
#X connect 24 0 23 0;
#X connect 25 0 15 0;
#X connect 25 0 22 0;
#X restore 311 52 pd control;
#X obj 31 121 wg/blow/noise~ \$1/blow;
#X text 40 140 for slap shortcut expression;
#X obj 30 92 wg/blow/pressure~ \$1/blow;
#X text 17 508 (c) GPL algorythmics \, acre \, winfried ritsch;
#X text 30 34 clarinet instrument with reed and blow;
#X text 76 71 add a pressure receiver;
#X text 32 11 wg/clarinet/dsp~ <id>;
#X obj 286 274 ../reed/exponential~ \$1/reed;
#X text 44 528 modified by Manuel Planton 2019;
#X obj 658 332 env~;
#X floatatom 658 355 5 0 0 0 - - -, f 5;
#X obj 722 332 env~;
#X floatatom 722 355 5 0 0 0 - - -, f 5;
#X obj 637 298 pipebell~ \$1/pipebell;
#X obj 473 229 wg/wave/out~ \$1/wg-right 1.3;
#X obj 477 366 wg/wave/in~ \$1/wg-right 100;
#X obj 99 233 wg/wave/out~ \$1/wg-left 1.3;
#X obj 103 370 wg/wave/in~ \$1/wg-left 100;
#X obj 61 300 *~ -1;
#X connect 2 0 1 0;
#X connect 4 0 9 0;
#X connect 5 0 14 0;
#X connect 7 0 14 0;
#X connect 9 0 7 0;
#X connect 14 0 22 0;
#X connect 16 0 17 0;
#X connect 18 0 19 0;
#X connect 20 0 16 0;
#X connect 20 0 22 1;
#X connect 20 1 0 0;
#X connect 20 1 18 0;
#X connect 21 0 24 1;
#X connect 21 0 14 1;
#X connect 21 1 20 0;
#X connect 23 0 25 0;
#X connect 23 1 14 1;
#X connect 25 0 24 0;
