#N canvas 373 293 513 336 10;
#X obj 232 65 f \$2;
#X obj 232 87 sel 0;
#X obj 232 44 loadbang;
#X obj 122 45 r \$1/freq;
#X text 68 277 (c) GPL \, acre winfried ritsch;
#X text 70 4 pipebell~ <id> [frequency];
#X text 96 295 Modified by Manuel Planton 2019;
#X text 227 149 transmission filter;
#X text 76 154 reflection filter;
#X obj 59 203 outlet~ reflection;
#X obj 207 203 outlet~ transmission;
#X obj 60 89 inlet~ pipe_out;
#X text 283 124 complementary filters;
#X obj 60 131 lop~ 1000;
#X obj 208 130 hip~ 1000;
#X connect 0 0 1 0;
#X connect 1 1 13 1;
#X connect 1 1 14 1;
#X connect 2 0 0 0;
#X connect 3 0 13 1;
#X connect 3 0 14 1;
#X connect 11 0 13 0;
#X connect 11 0 14 0;
#X connect 13 0 9 0;
#X connect 14 0 10 0;
