#N canvas 202 356 589 503 10;
#X obj 505 309 outlet~;
#X obj 275 92 block~ 4;
#X obj 275 53 r \$1/wg/block;
#X text 270 22 if really needed higer freqs;
#X obj 31 51 inlet~;
#X obj 52 213 inlet~;
#N canvas 468 489 450 300 control 0;
#X obj 32 44 r \$1/note;
#X obj 32 94 mtof;
#X text 27 25 control;
#X text 105 40 midi note nr;
#X obj 32 146 / 100;
#X text 95 125 1000ms/4 since quarter wavelength;
#X obj 32 211 s \$1/wg/delay;
#X obj 32 69 - 0;
#X obj 95 82 r \$1/detune;
#X text 179 83 for Bb clarinet or so.;
#X msg 32 124 250 \$1;
#X obj 32 177 - 0.035;
#X text 84 171 experimentally determined delay compensation for lop~
as loop filter with fc=1500Hz;
#X connect 0 0 7 0;
#X connect 1 0 10 0;
#X connect 4 0 11 0;
#X connect 7 0 1 0;
#X connect 8 0 7 1;
#X connect 10 0 4 0;
#X connect 11 0 6 0;
#X restore 275 131 pd control;
#X obj 31 121 wg/blow/noise~ \$1/blow;
#X text 50 196 for slap shortcut expression;
#X obj 30 92 wg/blow/pressure~ \$1/blow;
#X obj 194 224 wg/wave/out~ \$1/wg 1.3;
#X obj 192 360 wg/wave/in~ \$1/wg 1000;
#X text 72 177 TODO: a vibrato of some kind should be added...;
#X text 29 453 (c) GPL algorythmics \, acre \, winfried ritsch;
#X text 30 34 clarinet instrument with reed and blow;
#X text 76 71 add a pressure receiver;
#X text 32 11 wg/clarinet/dsp~ <id>;
#X obj 382 283 pipebell~ \$1/pipebell;
#X obj 30 296 ../reed/exponential~ \$1/reed;
#X text 56 473 modified by Manuel Planton 2019;
#X obj 382 311 *~ -1;
#X connect 2 0 1 0;
#X connect 4 0 9 0;
#X connect 5 0 18 0;
#X connect 7 0 18 0;
#X connect 9 0 7 0;
#X connect 10 0 18 1;
#X connect 10 1 17 0;
#X connect 17 0 20 0;
#X connect 17 1 0 0;
#X connect 18 0 11 0;
#X connect 20 0 11 1;
